<svg width="126" height="125" viewBox="0 0 126 125" fill="none" xmlns="http://www.w3.org/2000/svg">
<path d="M63 0L74.0027 11.2364L88.6244 5.44664L94.1056 20.1868L109.818 20.8448L108.83 36.54L122.917 43.5319L115.63 57.4684L125.655 69.5853L113.33 79.3532L117.56 94.5L102.327 98.4104L100.03 113.968L84.5245 111.345L76.0984 124.623L63 115.92L49.9016 124.623L41.4755 111.345L25.9695 113.968L23.6728 98.4104L8.4404 94.5L12.6701 79.3532L0.345119 69.5853L10.3699 57.4684L3.08344 43.5319L17.1699 36.54L16.1819 20.8448L31.8944 20.1868L37.3756 5.44664L51.9973 11.2364L63 0Z" fill="#161616"/>
</svg>
